<svg version="1.1" id="Layer_1" xmlns="http://www.w3.org/2000/svg" xmlns:xlink="http://www.w3.org/1999/xlink" x="0px" y="0px"
	 width="100%" viewBox="0 0 400 400" enable-background="new 0 0 400 400" xml:space="preserve">
<path fill="#F55A55" opacity="1.000000" stroke="none" 
	d="
M129.000000,401.000000 
	C100.645775,401.000000 72.291542,401.000000 43.553825,400.668640 
	C44.253017,399.130890 45.225040,397.798248 46.435558,396.737854 
	C57.658009,386.907349 68.931015,377.134644 80.170662,367.323730 
	C92.659058,356.422760 105.233063,345.615936 117.539452,334.512787 
	C121.098602,331.301636 123.865051,327.211884 127.460800,323.470093 
	C156.282913,323.451721 184.639160,323.488129 212.953110,323.849426 
	C210.577759,326.905243 208.500046,329.917664 205.861130,332.311432 
	C199.362259,338.206543 192.595093,343.805237 185.954666,349.544952 
	C171.669174,361.892761 157.302383,374.149078 143.167084,386.666687 
	C138.148987,391.110504 133.705688,396.203400 129.000000,401.000000 
z"/>
<path fill="#EF2C6B" opacity="1.000000" stroke="none" 
	d="
M1.000001,139.000000 
	C1.000000,119.979103 1.000000,100.958214 1.358570,81.438454 
	C2.762840,80.481712 3.995888,80.242760 4.825724,79.532631 
	C14.901238,70.910538 24.920176,62.222294 34.948280,53.544842 
	C49.236298,41.181232 63.623158,28.928835 77.752411,16.386303 
	C83.141273,11.602619 87.935028,6.148550 93.000000,0.999999 
	C115.687561,1.000000 138.375122,1.000000 161.447311,1.331766 
	C160.235275,3.530499 158.824982,5.606181 157.009094,7.227643 
	C149.850952,13.619405 142.582092,19.887772 135.323273,26.166039 
	C124.059967,35.907841 112.691261,45.529743 101.533119,55.390182 
	C97.125687,59.285038 93.163200,63.683403 88.534286,67.923622 
	C74.422371,68.006874 60.774170,67.987747 47.126263,68.041924 
	C37.760799,68.079102 33.045696,72.803902 32.997738,82.050682 
	C32.942509,92.699585 32.886669,103.348480 32.483437,114.031113 
	C27.893137,117.407005 23.626005,120.718643 19.413651,124.098549 
	C13.255155,129.040009 7.135953,134.030441 1.000001,139.000000 
z"/>
<path fill="#F4505A" opacity="1.000000" stroke="none" 
	d="
M126.994919,323.524902 
	C123.865051,327.211884 121.098602,331.301636 117.539452,334.512787 
	C105.233063,345.615936 92.659058,356.422760 80.170662,367.323730 
	C68.931015,377.134644 57.658009,386.907349 46.435558,396.737854 
	C45.225040,397.798248 44.253017,399.130890 43.085167,400.668640 
	C29.077011,401.000000 15.154024,401.000000 1.000000,401.000000 
	C1.000000,388.646729 1.000000,376.292023 1.333304,363.384003 
	C2.117467,362.626282 2.647850,362.514130 3.007676,362.204071 
	C15.901114,351.094299 28.818682,340.011688 41.604847,328.779510 
	C43.110508,327.456818 43.882259,325.298676 45.459824,323.469849 
	C72.948578,323.449554 99.971748,323.487244 126.994919,323.524902 
z"/>
<path fill="#F66351" opacity="1.000000" stroke="none" 
	d="
M129.468658,401.000000 
	C133.705688,396.203400 138.148987,391.110504 143.167084,386.666687 
	C157.302383,374.149078 171.669174,361.892761 185.954666,349.544952 
	C192.595093,343.805237 199.362259,338.206543 205.861130,332.311432 
	C208.500046,329.917664 210.577759,326.905243 213.418930,323.794556 
	C236.617020,323.451294 259.307007,323.487823 281.955078,323.849548 
	C279.933594,326.555786 278.215515,329.230652 275.928589,331.266541 
	C266.527771,339.635345 256.942749,347.796967 247.446518,356.058990 
	C234.951157,366.930298 222.398575,377.737946 210.033875,388.756195 
	C205.770859,392.554993 201.997208,396.902924 198.000000,401.000000 
	C175.312439,401.000000 152.624878,401.000000 129.468658,401.000000 
z"/>
<path fill="#F76D4C" opacity="1.000000" stroke="none" 
	d="
M284.000000,401.000000 
	C269.645782,401.000000 255.291550,401.000000 240.553818,400.668579 
	C241.251343,399.131989 242.220490,397.798706 243.430878,396.741699 
	C254.406189,387.156830 265.435120,377.633362 276.425720,368.065948 
	C288.913025,357.195618 301.496155,346.430420 313.780945,335.335327 
	C317.615112,331.872467 320.616180,327.487274 324.464478,323.472168 
	C336.068420,323.403168 347.207611,323.474854 358.344269,323.338806 
	C366.010040,323.245148 370.244965,319.380585 371.255859,311.812592 
	C371.540039,309.684967 371.539795,307.510986 371.556976,305.357391 
	C371.677673,290.239258 371.768738,275.120880 372.212616,259.922913 
	C377.707428,255.725479 382.804535,251.537201 388.027405,247.512085 
	C392.273346,244.239868 396.670105,241.163315 401.000000,238.000000 
	C401.000000,258.020905 401.000000,278.041779 400.641754,298.561432 
	C398.515198,300.214020 396.592255,301.188049 395.005127,302.552643 
	C387.819580,308.730591 380.748779,315.041779 373.599792,321.262604 
	C360.052521,333.051025 346.470978,344.799988 332.920654,356.584839 
	C320.751770,367.168243 308.528107,377.690826 296.490234,388.421570 
	C292.087677,392.346100 288.149872,396.791992 284.000000,401.000000 
z"/>
<path fill="#F8734A" opacity="1.000000" stroke="none" 
	d="
M284.468658,401.000000 
	C288.149872,396.791992 292.087677,392.346100 296.490234,388.421570 
	C308.528107,377.690826 320.751770,367.168243 332.920654,356.584839 
	C346.470978,344.799988 360.052521,333.051025 373.599792,321.262604 
	C380.748779,315.041779 387.819580,308.730591 395.005127,302.552643 
	C396.592255,301.188049 398.515198,300.214020 400.641754,299.030090 
	C401.000000,314.687561 401.000000,330.375122 400.641174,346.561646 
	C396.951263,349.444366 393.424133,351.599091 390.323761,354.252441 
	C378.349060,364.500397 366.399506,374.783752 354.670258,385.309814 
	C349.177185,390.239410 344.207123,395.751770 339.000000,401.000000 
	C320.979095,401.000000 302.958221,401.000000 284.468658,401.000000 
z"/>
<path fill="#F13F62" opacity="1.000000" stroke="none" 
	d="
M269.000000,1.000004 
	C289.687561,1.000000 310.375122,1.000000 331.446167,1.331458 
	C327.369476,5.792601 322.990143,10.013833 318.434509,14.035380 
	C302.677429,27.945116 286.775330,41.691933 271.120911,55.715679 
	C267.053162,59.359711 263.686371,63.786186 259.533752,67.923645 
	C238.378998,67.947189 217.688126,67.900360 197.032410,67.505463 
	C198.031937,65.882462 198.823593,64.416031 199.989487,63.364616 
	C206.164154,57.796371 212.400726,52.295410 218.676041,46.840382 
	C230.345230,36.696571 242.174362,26.732946 253.697174,16.426285 
	C259.086090,11.606159 263.916473,6.161575 269.000000,1.000004 
z"/>
<path fill="#EE246E" opacity="1.000000" stroke="none" 
	d="
M92.531342,0.999999 
	C87.935028,6.148550 83.141273,11.602619 77.752411,16.386303 
	C63.623158,28.928835 49.236298,41.181232 34.948280,53.544842 
	C24.920176,62.222294 14.901238,70.910538 4.825724,79.532631 
	C3.995888,80.242760 2.762840,80.481712 1.358570,80.969795 
	C1.000000,54.401329 1.000000,27.802654 1.000000,1.000000 
	C31.353924,1.000000 61.708302,1.000000 92.531342,0.999999 
z"/>
<path fill="#F2465E" opacity="1.000000" stroke="none" 
	d="
M259.997620,67.853271 
	C263.686371,63.786186 267.053162,59.359711 271.120911,55.715679 
	C286.775330,41.691933 302.677429,27.945116 318.434509,14.035380 
	C322.990143,10.013833 327.369476,5.792601 331.914825,1.331458 
	C350.687561,1.000000 369.375122,1.000000 388.447327,1.331765 
	C387.357147,3.434710 386.090881,5.445017 384.375763,6.940550 
	C364.705780,24.092047 344.931305,41.123814 325.282715,58.299622 
	C321.950592,61.212399 319.081360,64.654686 315.534332,67.922699 
	C296.712799,67.946472 278.355225,67.899872 259.997620,67.853271 
z"/>
<path fill="#F03865" opacity="1.000000" stroke="none" 
	d="
M268.531342,1.000004 
	C263.916473,6.161575 259.086090,11.606159 253.697174,16.426285 
	C242.174362,26.732946 230.345230,36.696571 218.676041,46.840382 
	C212.400726,52.295410 206.164154,57.796371 199.989487,63.364616 
	C198.823593,64.416031 198.031937,65.882462 196.568634,67.576096 
	C178.378967,67.947472 160.688278,67.900146 143.032715,67.504776 
	C143.498611,66.285172 143.716904,65.171959 144.392029,64.578339 
	C154.356415,55.817009 164.361191,47.101242 174.397186,38.421833 
	C187.691727,26.924335 201.035492,15.483696 214.303558,3.955866 
	C215.113617,3.252068 215.445587,1.998027 216.000000,1.000000 
	C233.354233,1.000000 250.708450,1.000000 268.531342,1.000004 
z"/>
<path fill="#F03367" opacity="1.000000" stroke="none" 
	d="
M215.531342,1.000000 
	C215.445587,1.998027 215.113617,3.252068 214.303558,3.955866 
	C201.035492,15.483696 187.691727,26.924335 174.397186,38.421833 
	C164.361191,47.101242 154.356415,55.817009 144.392029,64.578339 
	C143.716904,65.171959 143.498611,66.285172 142.569000,67.576157 
	C124.379478,67.947891 106.688797,67.900192 88.998116,67.852501 
	C93.163200,63.683403 97.125687,59.285038 101.533119,55.390182 
	C112.691261,45.529743 124.059967,35.907841 135.323273,26.166039 
	C142.582092,19.887772 149.850952,13.619405 157.009094,7.227643 
	C158.824982,5.606181 160.235275,3.530499 161.915970,1.331766 
	C179.687561,1.000000 197.375122,1.000000 215.531342,1.000000 
z"/>
<path fill="#F7694E" opacity="1.000000" stroke="none" 
	d="
M323.998596,323.524261 
	C320.616180,327.487274 317.615112,331.872467 313.780945,335.335327 
	C301.496155,346.430420 288.913025,357.195618 276.425720,368.065948 
	C265.435120,377.633362 254.406189,387.156830 243.430878,396.741699 
	C242.220490,397.798706 241.251343,399.131989 240.085159,400.668579 
	C226.312439,401.000000 212.624878,401.000000 198.468658,401.000000 
	C201.997208,396.902924 205.770859,392.554993 210.033875,388.756195 
	C222.398575,377.737946 234.951157,366.930298 247.446518,356.058990 
	C256.942749,347.796967 266.527771,339.635345 275.928589,331.266541 
	C278.215515,329.230652 279.933594,326.555786 282.420990,323.796539 
	C296.618713,323.453644 310.308655,323.488953 323.998596,323.524261 
z"/>
<path fill="#F34B5C" opacity="1.000000" stroke="none" 
	d="
M315.998260,67.852341 
	C319.081360,64.654686 321.950592,61.212399 325.282715,58.299622 
	C344.931305,41.123814 364.705780,24.092047 384.375763,6.940550 
	C386.090881,5.445017 387.357147,3.434710 388.915955,1.331765 
	C392.966034,1.000000 396.932068,1.000000 401.000000,1.000000 
	C401.000000,14.020747 401.000000,27.041716 400.665894,40.616417 
	C396.053314,44.561119 391.624969,47.781620 387.529755,51.381123 
	C380.562805,57.504761 373.805481,63.866882 366.577942,70.039078 
	C362.849182,69.308723 359.512268,68.180199 356.154144,68.113289 
	C342.772430,67.846657 329.384125,67.910721 315.998260,67.852341 
z"/>
<path fill="#F2475E" opacity="1.000000" stroke="none" 
	d="
M44.994240,323.527863 
	C43.882259,325.298676 43.110508,327.456818 41.604847,328.779510 
	C28.818682,340.011688 15.901114,351.094299 3.007676,362.204071 
	C2.647850,362.514130 2.117467,362.626282 1.333304,362.915344 
	C1.000000,339.979095 1.000000,316.958221 1.332678,293.384338 
	C7.854043,287.643921 14.025582,282.435883 20.237444,277.276398 
	C24.405663,273.814301 28.631031,270.421021 32.900131,267.461304 
	C32.978283,281.556702 32.977398,295.187744 32.999336,308.818726 
	C33.014614,318.310516 35.834255,321.750031 44.994240,323.527863 
z"/>
<path fill="#F66351" opacity="1.000000" stroke="none" 
	d="
M401.000000,237.531342 
	C396.670105,241.163315 392.273346,244.239868 388.027405,247.512085 
	C382.804535,251.537201 377.707428,255.725479 372.104218,259.464600 
	C371.724396,235.724945 371.796326,212.363953 372.221649,188.932373 
	C376.869537,185.588348 381.176117,182.330627 385.455383,179.037430 
	C390.648956,175.040604 395.819489,171.013840 401.000000,167.000000 
	C401.000000,190.354233 401.000000,213.708450 401.000000,237.531342 
z"/>
<path fill="#F13F62" opacity="1.000000" stroke="none" 
	d="
M32.830833,266.996948 
	C28.631031,270.421021 24.405663,273.814301 20.237444,277.276398 
	C14.025582,282.435883 7.854043,287.643921 1.332678,292.915649 
	C1.000000,273.312439 1.000000,253.624878 1.358570,233.438446 
	C2.884964,232.372604 4.237874,232.021164 5.190292,231.203323 
	C10.965056,226.244553 16.537918,221.045441 22.405998,216.202606 
	C25.652267,213.523514 29.341764,211.381485 32.900906,209.461670 
	C32.923840,228.949646 32.877338,247.973297 32.830833,266.996948 
z"/>
<path fill="#F55A55" opacity="1.000000" stroke="none" 
	d="
M401.000000,166.531342 
	C395.819489,171.013840 390.648956,175.040604 385.455383,179.037430 
	C381.176117,182.330627 376.869537,185.588348 372.111938,188.474274 
	C371.722412,166.725403 371.796021,145.364014 372.236603,123.973969 
	C376.169739,121.362831 379.814880,118.881653 383.284424,116.175346 
	C389.247314,111.524200 395.100677,106.732628 401.000000,102.000000 
	C401.000000,123.354225 401.000000,144.708450 401.000000,166.531342 
z"/>
<path fill="#F45259" opacity="1.000000" stroke="none" 
	d="
M401.000000,101.531342 
	C395.100677,106.732628 389.247314,111.524200 383.284424,116.175346 
	C379.814880,118.881653 376.169739,121.362831 372.126831,123.515961 
	C371.618317,109.637718 371.476349,96.187721 371.612823,82.740547 
	C371.662720,77.825935 370.524048,73.592010 366.960052,70.128784 
	C373.805481,63.866882 380.562805,57.504761 387.529755,51.381123 
	C391.624969,47.781620 396.053314,44.561119 400.665894,41.085075 
	C401.000000,61.020893 401.000000,81.041786 401.000000,101.531342 
z"/>
<path fill="#F97947" opacity="1.000000" stroke="none" 
	d="
M339.468658,401.000000 
	C344.207123,395.751770 349.177185,390.239410 354.670258,385.309814 
	C366.399506,374.783752 378.349060,364.500397 390.323761,354.252441 
	C393.424133,351.599091 396.951263,349.444366 400.641174,347.030304 
	C401.000000,364.931854 401.000000,382.863678 401.000000,401.000000 
	C380.646240,401.000000 360.291779,401.000000 339.468658,401.000000 
z"/>
<path fill="#F03865" opacity="1.000000" stroke="none" 
	d="
M32.831467,208.997360 
	C29.341764,211.381485 25.652267,213.523514 22.405998,216.202606 
	C16.537918,221.045441 10.965056,226.244553 5.190292,231.203323 
	C4.237874,232.021164 2.884964,232.372604 1.358570,232.969788 
	C1.000000,216.645767 1.000000,200.291550 1.360837,183.437820 
	C6.813886,179.126114 11.947384,175.367523 16.987007,171.487015 
	C22.315050,167.384445 27.553705,163.165787 32.900917,159.462067 
	C32.924107,176.283325 32.877789,192.640350 32.831467,208.997360 
z"/>
<path fill="#F03268" opacity="1.000000" stroke="none" 
	d="
M32.831406,158.997818 
	C27.553705,163.165787 22.315050,167.384445 16.987007,171.487015 
	C11.947384,175.367523 6.813886,179.126114 1.360837,182.969162 
	C1.000000,168.645767 1.000000,154.291550 1.000001,139.468658 
	C7.135953,134.030441 13.255155,129.040009 19.413651,124.098549 
	C23.626005,120.718643 27.893137,117.407005 32.553341,114.495361 
	C32.924404,129.616531 32.877903,144.307175 32.831406,158.997818 
z"/>
<path fill="#FFFEFE" opacity="1.000000" stroke="none" 
	d="
M32.900917,159.462067 
	C32.877903,144.307175 32.924404,129.616531 32.900997,114.461632 
	C32.886669,103.348480 32.942509,92.699585 32.997738,82.050682 
	C33.045696,72.803902 37.760799,68.079102 47.126263,68.041924 
	C60.774170,67.987747 74.422371,68.006874 88.534286,67.923622 
	C106.688797,67.900192 124.379478,67.947891 142.533875,67.924194 
	C160.688278,67.900146 178.378967,67.947472 196.533447,67.924164 
	C217.688126,67.900360 238.378998,67.947189 259.533752,67.923645 
	C278.355225,67.899872 296.712799,67.946472 315.534332,67.922707 
	C329.384125,67.910721 342.772430,67.846657 356.154144,68.113289 
	C359.512268,68.180199 362.849182,69.308723 366.577942,70.039070 
	C370.524048,73.592010 371.662720,77.825935 371.612823,82.740547 
	C371.476349,96.187721 371.618317,109.637718 371.759827,123.544609 
	C371.796021,145.364014 371.722412,166.725403 371.758545,188.544876 
	C371.796326,212.363953 371.724396,235.724945 371.760864,259.544250 
	C371.768738,275.120880 371.677673,290.239258 371.556976,305.357391 
	C371.539795,307.510986 371.540039,309.684967 371.255859,311.812592 
	C370.244965,319.380585 366.010040,323.245148 358.344269,323.338806 
	C347.207611,323.474854 336.068420,323.403168 324.464478,323.472168 
	C310.308655,323.488953 296.618713,323.453644 282.462891,323.471344 
	C259.307007,323.487823 236.617020,323.451294 213.461227,323.469666 
	C184.639160,323.488129 156.282913,323.451721 127.460793,323.470093 
	C99.971748,323.487244 72.948578,323.449554 45.459831,323.469849 
	C35.834255,321.750031 33.014614,318.310516 32.999336,308.818726 
	C32.977398,295.187744 32.978283,281.556702 32.900131,267.461304 
	C32.877338,247.973297 32.923840,228.949646 32.900906,209.461670 
	C32.877789,192.640350 32.924107,176.283325 32.900917,159.462067 
M143.926559,307.742157 
	C156.952408,307.681091 169.978241,307.619995 183.924973,307.738464 
	C204.608475,307.683075 225.291977,307.627686 246.900101,307.755402 
	C282.944122,307.755402 318.988129,307.755402 355.633667,307.755402 
	C355.633667,305.182861 355.633331,303.229034 355.633728,301.275208 
	C355.638947,274.817139 355.656769,248.359024 355.633728,221.900970 
	C355.630859,218.585739 355.412567,215.270721 355.529449,211.052628 
	C355.442322,191.708282 355.355225,172.363953 355.519989,152.109985 
	C355.519989,138.509308 355.519989,124.908623 355.519989,111.141090 
	C351.620911,111.141090 348.309204,111.141090 344.070068,110.998383 
	C324.712280,111.045326 305.354462,111.092270 285.069214,110.997437 
	C261.378143,111.045105 237.687103,111.092766 213.068619,110.999092 
	C189.044830,111.046364 165.021057,111.093636 140.069794,110.998566 
	C109.869522,110.998566 79.669250,110.998566 49.356865,110.998566 
	C49.356865,138.145569 49.356865,164.572342 49.185009,191.922241 
	C49.242157,212.611542 49.299305,233.300858 49.185795,254.914886 
	C49.185795,272.453186 49.185795,289.991516 49.185795,307.560730 
	C53.376572,307.560730 56.688755,307.560730 60.921738,307.743195 
	C77.943619,307.682922 94.965508,307.622650 112.910934,307.742889 
	C122.942497,307.683289 132.974060,307.623657 143.926559,307.742157 
M116.338356,92.947197 
	C116.916313,90.460976 118.247917,87.864609 117.904251,85.513077 
	C117.316689,81.492683 114.146423,79.195503 110.133667,79.192825 
	C106.538681,79.190430 103.266083,80.567955 102.085678,84.540443 
	C100.888527,88.569260 101.612053,92.236725 105.170319,94.682968 
	C108.891251,97.241028 112.634445,97.010635 116.338356,92.947197 
M55.428967,91.932053 
	C59.111435,96.461525 62.929836,97.495445 66.983932,95.060844 
	C70.416893,92.999252 72.022110,88.402580 70.617950,84.654495 
	C68.959160,80.226730 64.701111,78.196625 60.163105,79.669945 
	C55.117519,81.308052 53.499004,85.001099 55.428967,91.932053 
M82.739227,79.994186 
	C79.042976,82.043579 76.476608,85.280716 78.191414,89.264465 
	C79.386734,92.041374 82.305984,94.815239 85.120064,95.969711 
	C88.655952,97.420296 92.270012,95.120041 93.507248,91.656761 
	C94.431435,89.069778 94.565720,85.309326 93.305458,83.042107 
	C91.414413,79.640076 87.704399,78.003029 82.739227,79.994186 
z"/>
<path fill="#F13F62" opacity="1.000000" stroke="none" 
	d="
M49.356453,253.990158 
	C49.299305,233.300858 49.242157,212.611542 49.606754,191.421051 
	C54.202538,187.714874 58.525021,184.683823 62.522614,181.272079 
	C74.254372,171.259567 85.858894,161.097900 97.509560,150.990417 
	C106.904884,142.839523 116.416565,134.817093 125.640640,126.476677 
	C131.000015,121.630737 135.893906,116.269989 140.997253,111.140900 
	C165.021057,111.093636 189.044830,111.046364 213.408905,111.369202 
	C203.231522,121.115959 192.743683,130.526306 182.188507,139.860489 
	C169.638199,150.959015 156.980362,161.936707 144.508423,173.122086 
	C142.907562,174.557785 142.142609,176.925507 140.777206,179.154480 
	C130.274094,184.318649 120.011597,189.248764 109.686539,194.044189 
	C99.624374,198.717514 98.355675,200.730255 99.057861,211.841064 
	C97.149185,213.943329 95.546822,215.867264 93.684311,217.493210 
	C81.946388,227.740234 70.208038,237.988617 58.330776,248.072769 
	C55.619259,250.374939 52.362347,252.034729 49.356453,253.990158 
z"/>
<path fill="#F55B55" opacity="1.000000" stroke="none" 
	d="
M245.975479,307.572266 
	C225.291977,307.627686 204.608475,307.683075 183.502350,307.318451 
	C184.693329,304.853943 186.082077,302.567291 187.967987,300.816040 
	C191.733337,297.319519 195.802277,294.152405 199.691452,290.786407 
	C216.882675,275.907898 234.096786,261.055084 251.177032,246.050003 
	C253.181610,244.288956 254.410812,241.645294 256.367737,239.278915 
	C257.231964,239.087051 257.787567,239.152435 258.215240,238.948929 
	C273.027618,231.900589 287.890106,224.952911 302.599854,217.695755 
	C308.621582,214.724884 310.891541,210.354462 309.311798,204.181778 
	C308.551971,201.212677 305.821808,198.747833 304.218750,195.817017 
	C315.698242,185.825485 326.865387,175.980164 338.220947,166.357147 
	C343.721039,161.696213 349.574585,157.452316 355.268097,153.019608 
	C355.355225,172.363953 355.442322,191.708282 355.098877,211.559036 
	C348.756226,216.828583 342.721191,221.448090 336.956238,226.383087 
	C322.469757,238.784058 308.107300,251.329941 293.691315,263.813293 
	C281.782532,274.125580 269.759003,284.309174 258.013397,294.803955 
	C253.667465,298.687042 249.969147,303.294922 245.975479,307.572266 
z"/>
<path fill="#F2485E" opacity="1.000000" stroke="none" 
	d="
M140.990433,178.861481 
	C142.142609,176.925507 142.907562,174.557785 144.508423,173.122086 
	C156.980362,161.936707 169.638199,150.959015 182.188507,139.860489 
	C192.743683,130.526306 203.231522,121.115959 213.872620,111.439880 
	C237.687103,111.092766 261.378143,111.045105 285.442566,111.390228 
	C285.156586,112.720268 284.649841,113.829803 283.815155,114.569069 
	C269.831207,126.954117 255.856812,139.351303 241.730759,151.572922 
	C239.829346,153.217987 237.118393,153.927338 234.512939,154.860565 
	C232.062439,153.163544 229.628723,150.218369 227.761475,150.541946 
	C225.186646,150.988144 222.251816,153.445526 220.860291,155.846512 
	C217.053452,162.415009 213.973663,169.404892 210.221069,176.242783 
	C207.629333,177.600143 205.186768,178.668411 203.253967,180.329742 
	C190.852600,190.989120 178.490250,201.696884 166.280212,212.574112 
	C162.531403,215.913727 159.300034,219.834152 155.492828,223.340271 
	C143.062637,217.826019 130.971344,212.460083 118.185715,206.786026 
	C120.924957,205.455292 122.685776,204.558975 124.479836,203.735046 
	C134.983810,198.911026 145.588318,194.293396 155.965912,189.211990 
	C161.228210,186.635300 162.314117,183.022308 160.141983,178.728409 
	C158.032837,174.559036 153.561615,173.200378 148.631912,175.318207 
	C146.053284,176.426010 143.535629,177.675812 140.990433,178.861481 
z"/>
<path fill="#F66756" opacity="1.000000" stroke="none" 
	d="
M246.437790,307.663818 
	C249.969147,303.294922 253.667465,298.687042 258.013397,294.803955 
	C269.759003,284.309174 281.782532,274.125580 293.691315,263.813293 
	C308.107300,251.329941 322.469757,238.784058 336.956238,226.383087 
	C342.721191,221.448090 348.756226,216.828583 354.981201,212.010529 
	C355.412567,215.270721 355.630859,218.585739 355.633728,221.900970 
	C355.656769,248.359024 355.638947,274.817139 355.633728,301.275208 
	C355.633331,303.229034 355.633667,305.182861 355.633667,307.755402 
	C318.988129,307.755402 282.944122,307.755402 246.437790,307.663818 
z"/>
<path fill="#F34E5B" opacity="1.000000" stroke="none" 
	d="
M155.831696,223.488617 
	C159.300034,219.834152 162.531403,215.913727 166.280212,212.574112 
	C178.490250,201.696884 190.852600,190.989120 203.253967,180.329742 
	C205.186768,178.668411 207.629333,177.600143 210.162979,176.614532 
	C198.304062,202.313431 186.118347,227.655441 173.578491,253.029327 
	C171.819443,253.872772 170.243149,254.485397 169.035431,255.525864 
	C151.814453,270.362061 134.593979,285.200012 117.519531,300.203827 
	C115.262726,302.186951 113.811630,305.086975 111.987389,307.562347 
	C94.965508,307.622650 77.943619,307.682922 60.498848,307.321472 
	C61.819496,304.758514 63.320198,302.346039 65.352188,300.527069 
	C71.398582,295.114471 77.684570,289.970673 83.821327,284.657593 
	C98.600739,271.861877 113.440155,259.132721 128.050690,246.146469 
	C132.204102,242.454803 135.654068,237.971695 139.815857,233.898346 
	C143.155045,235.451172 145.972656,237.684174 149.093277,238.252121 
	C152.023621,238.785431 155.926971,238.458237 158.177948,236.823715 
	C159.990067,235.507904 160.836807,231.559586 160.493637,228.995880 
	C160.224899,226.988083 157.477722,225.312042 155.831696,223.488617 
z"/>
<path fill="#F34F5B" opacity="1.000000" stroke="none" 
	d="
M234.782318,155.070007 
	C237.118393,153.927338 239.829346,153.217987 241.730759,151.572922 
	C255.856812,139.351303 269.831207,126.954117 283.815155,114.569069 
	C284.649841,113.829803 285.156586,112.720268 285.906311,111.461121 
	C305.354462,111.092270 324.712280,111.045326 344.443787,111.390923 
	C342.351074,114.432121 340.081207,117.302521 337.385559,119.692757 
	C322.015900,133.321198 306.599396,146.898193 291.084503,160.360886 
	C283.587219,166.866486 275.840088,173.084137 267.893799,179.324997 
	C265.517151,178.193863 263.426758,177.218735 261.393951,176.135483 
	C257.472015,174.045517 253.445404,173.434769 249.965546,176.598175 
	C246.303452,179.927231 247.094879,183.933197 249.011795,187.978210 
	C236.742569,198.308105 224.845901,208.531891 212.817215,218.597931 
	C210.345230,220.666565 207.379944,222.145721 204.739532,223.530716 
	C208.214172,215.910309 211.543610,208.633118 214.978867,201.406219 
	C221.186356,188.347305 227.542816,175.358124 233.614471,162.236816 
	C234.593613,160.120834 234.421997,157.472351 234.782318,155.070007 
z"/>
<path fill="#F2475E" opacity="1.000000" stroke="none" 
	d="
M139.426605,233.851532 
	C135.654068,237.971695 132.204102,242.454803 128.050690,246.146469 
	C113.440155,259.132721 98.600739,271.861877 83.821327,284.657593 
	C77.684570,289.970673 71.398582,295.114471 65.352188,300.527069 
	C63.320198,302.346039 61.819496,304.758514 60.038452,307.230225 
	C56.688755,307.560730 53.376572,307.560730 49.185795,307.560730 
	C49.185795,289.991516 49.185795,272.453186 49.271126,254.452515 
	C52.362347,252.034729 55.619259,250.374939 58.330776,248.072769 
	C70.208038,237.988617 81.946388,227.740234 93.684311,217.493210 
	C95.546822,215.867264 97.149185,213.943329 99.325264,212.064728 
	C104.343513,215.041656 108.694740,218.510147 113.520271,221.092239 
	C122.002800,225.631119 130.775467,229.627792 139.426605,233.851532 
z"/>
<path fill="#F03765" opacity="1.000000" stroke="none" 
	d="
M140.533524,111.069733 
	C135.893906,116.269989 131.000015,121.630737 125.640640,126.476677 
	C116.416565,134.817093 106.904884,142.839523 97.509560,150.990417 
	C85.858894,161.097900 74.254372,171.259567 62.522614,181.272079 
	C58.525021,184.683823 54.202538,187.714874 49.692680,190.959503 
	C49.356865,164.572342 49.356865,138.145569 49.356865,110.998566 
	C79.669250,110.998566 109.869522,110.998566 140.533524,111.069733 
z"/>
<path fill="#F45658" opacity="1.000000" stroke="none" 
	d="
M255.999481,239.410797 
	C254.410812,241.645294 253.181610,244.288956 251.177032,246.050003 
	C234.096786,261.055084 216.882675,275.907898 199.691452,290.786407 
	C195.802277,294.152405 191.733337,297.319519 187.967987,300.816040 
	C186.082077,302.567291 184.693329,304.853943 183.041901,307.228699 
	C169.978241,307.619995 156.952408,307.681091 143.503738,307.322784 
	C144.900223,304.619965 146.436417,302.017944 148.586807,300.107086 
	C159.066116,290.795044 169.784866,281.751617 180.215027,272.386047 
	C181.805084,270.958282 182.327881,268.341919 183.368469,266.231415 
	C183.392609,266.187531 183.483795,266.228973 183.858337,266.356995 
	C185.582428,266.051178 187.231934,265.973267 188.234955,265.128113 
	C197.859192,257.019073 207.396347,248.806046 216.915115,240.572723 
	C228.806747,230.287003 240.747314,220.054733 252.482162,209.592361 
	C257.236328,205.353714 261.503510,200.568893 266.341156,196.090622 
	C274.198792,199.570572 281.707581,202.992508 289.992340,206.768097 
	C287.330292,208.129807 285.759888,209.015076 284.124237,209.756409 
	C273.743652,214.461304 263.322266,219.077072 252.972488,223.848434 
	C249.233856,225.572006 246.716934,228.488342 247.505829,232.857681 
	C248.318573,237.359039 251.383530,239.536942 255.999481,239.410797 
z"/>
<path fill="#F45558" opacity="1.000000" stroke="none" 
	d="
M268.206055,179.432159 
	C275.840088,173.084137 283.587219,166.866486 291.084503,160.360886 
	C306.599396,146.898193 322.015900,133.321198 337.385559,119.692757 
	C340.081207,117.302521 342.351074,114.432121 344.907532,111.462280 
	C348.309204,111.141090 351.620911,111.141090 355.519989,111.141090 
	C355.519989,124.908623 355.519989,138.509308 355.394043,152.564789 
	C349.574585,157.452316 343.721039,161.696213 338.220947,166.357147 
	C326.865387,175.980164 315.698242,185.825485 303.856689,195.766846 
	C291.575226,190.446945 279.890656,184.939545 268.206055,179.432159 
z"/>
<path fill="#F45359" opacity="1.000000" stroke="none" 
	d="
M183.344315,266.275299 
	C182.327881,268.341919 181.805084,270.958282 180.215027,272.386047 
	C169.784866,281.751617 159.066116,290.795044 148.586807,300.107086 
	C146.436417,302.017944 144.900223,304.619965 143.043274,307.233704 
	C132.974060,307.623657 122.942497,307.683289 112.449158,307.652618 
	C113.811630,305.086975 115.262726,302.186951 117.519531,300.203827 
	C134.593979,285.200012 151.814453,270.362061 169.035431,255.525864 
	C170.243149,254.485397 171.819443,253.872772 173.563568,253.413315 
	C171.986908,257.370178 170.276993,261.080933 173.326614,264.835297 
	C176.124374,268.279602 179.727188,267.703186 183.344315,266.275299 
z"/>
<path fill="#F03A6B" opacity="1.000000" stroke="none" 
	d="
M116.107544,93.248230 
	C112.634445,97.010635 108.891251,97.241028 105.170319,94.682968 
	C101.612053,92.236725 100.888527,88.569260 102.085678,84.540443 
	C103.266083,80.567955 106.538681,79.190430 110.133667,79.192825 
	C114.146423,79.195503 117.316689,81.492683 117.904251,85.513077 
	C118.247917,87.864609 116.916313,90.460976 116.107544,93.248230 
z"/>
<path fill="#EF356D" opacity="1.000000" stroke="none" 
	d="
M55.262756,91.581322 
	C53.499004,85.001099 55.117519,81.308052 60.163105,79.669945 
	C64.701111,78.196625 68.959160,80.226730 70.617950,84.654495 
	C72.022110,88.402580 70.416893,92.999252 66.983932,95.060844 
	C62.929836,97.495445 59.111435,96.461525 55.262756,91.581322 
z"/>
<path fill="#F0366B" opacity="1.000000" stroke="none" 
	d="
M83.102798,79.862793 
	C87.704399,78.003029 91.414413,79.640076 93.305458,83.042107 
	C94.565720,85.309326 94.431435,89.069778 93.507248,91.656761 
	C92.270012,95.120041 88.655952,97.420296 85.120064,95.969711 
	C82.305984,94.815239 79.386734,92.041374 78.191414,89.264465 
	C76.476608,85.280716 79.042976,82.043579 83.102798,79.862793 
z"/>
<path fill="#FFFCFC" opacity="1.000000" stroke="none" 
	d="
M139.815872,233.898346 
	C130.775467,229.627792 122.002800,225.631119 113.520271,221.092239 
	C108.694740,218.510147 104.343513,215.041656 99.511299,211.748657 
	C98.355675,200.730255 99.624374,198.717514 109.686539,194.044189 
	C120.011597,189.248764 130.274094,184.318649 140.777206,179.154480 
	C143.535629,177.675812 146.053284,176.426010 148.631912,175.318207 
	C153.561615,173.200378 158.032837,174.559036 160.141983,178.728409 
	C162.314117,183.022308 161.228210,186.635300 155.965912,189.211990 
	C145.588318,194.293396 134.983810,198.911026 124.479836,203.735046 
	C122.685776,204.558975 120.924957,205.455292 118.185715,206.786026 
	C130.971344,212.460083 143.062637,217.826019 155.492828,223.340271 
	C157.477722,225.312042 160.224899,226.988083 160.493637,228.995880 
	C160.836807,231.559586 159.990067,235.507904 158.177948,236.823715 
	C155.926971,238.458237 152.023621,238.785431 149.093277,238.252121 
	C145.972656,237.684174 143.155045,235.451172 139.815872,233.898346 
z"/>
<path fill="#FFFCFC" opacity="1.000000" stroke="none" 
	d="
M267.893799,179.324982 
	C279.890656,184.939545 291.575226,190.446945 303.621887,196.004486 
	C305.821808,198.747833 308.551971,201.212677 309.311798,204.181778 
	C310.891541,210.354462 308.621582,214.724884 302.599854,217.695755 
	C287.890106,224.952911 273.027618,231.900589 258.215240,238.948929 
	C257.787567,239.152435 257.231964,239.087051 256.367737,239.278915 
	C251.383530,239.536942 248.318573,237.359039 247.505829,232.857681 
	C246.716934,228.488342 249.233856,225.572006 252.972488,223.848434 
	C263.322266,219.077072 273.743652,214.461304 284.124237,209.756409 
	C285.759888,209.015076 287.330292,208.129807 289.992340,206.768097 
	C281.707581,202.992508 274.198792,199.570572 266.113647,195.807251 
	C260.137390,192.915985 254.737503,190.366104 249.337601,187.816238 
	C247.094879,183.933197 246.303452,179.927231 249.965546,176.598175 
	C253.445404,173.434769 257.472015,174.045517 261.393951,176.135483 
	C263.426758,177.218735 265.517151,178.193863 267.893799,179.324982 
z"/>
<path fill="#FFFCFC" opacity="1.000000" stroke="none" 
	d="
M183.368469,266.231415 
	C179.727188,267.703186 176.124374,268.279602 173.326614,264.835297 
	C170.276993,261.080933 171.986908,257.370178 173.917725,253.381439 
	C186.118347,227.655441 198.304062,202.313431 210.547867,176.599670 
	C213.973663,169.404892 217.053452,162.415009 220.860291,155.846512 
	C222.251816,153.445526 225.186646,150.988144 227.761475,150.541946 
	C229.628723,150.218369 232.062439,153.163544 234.512939,154.860580 
	C234.421997,157.472351 234.593613,160.120834 233.614471,162.236816 
	C227.542816,175.358124 221.186356,188.347305 214.978867,201.406219 
	C211.543610,208.633118 208.214172,215.910309 204.474655,223.745529 
	C203.136612,226.432327 202.208130,228.561798 201.177521,230.640656 
	C195.293076,242.510101 189.384293,254.367477 183.483795,266.228973 
	C183.483795,266.228973 183.392609,266.187531 183.368469,266.231415 
z"/>
<path fill="#F45359" opacity="1.000000" stroke="none" 
	d="
M183.858322,266.356995 
	C189.384293,254.367477 195.293076,242.510101 201.177521,230.640656 
	C202.208130,228.561798 203.136612,226.432327 204.377151,224.111420 
	C207.379944,222.145721 210.345230,220.666565 212.817215,218.597931 
	C224.845901,208.531891 236.742569,198.308105 249.011795,187.978210 
	C254.737503,190.366104 260.137390,192.915985 265.764771,195.749237 
	C261.503510,200.568893 257.236328,205.353714 252.482162,209.592361 
	C240.747314,220.054733 228.806747,230.287003 216.915115,240.572723 
	C207.396347,248.806046 197.859192,257.019073 188.234955,265.128113 
	C187.231934,265.973267 185.582428,266.051178 183.858322,266.356995 
z"/>
</svg>